<?xml version="1.0" encoding="UTF-8" standalone="no"?>
<!-- Created with Inkscape (http://www.inkscape.org/) -->

<svg
   version="1.1"
   id="svg2"
   width="459.44766"
   height="450.8497"
   viewBox="0 0 459.44766 450.8497"
   xmlns="http://www.w3.org/2000/svg"
   xmlns:svg="http://www.w3.org/2000/svg">
  <defs
     id="defs6" />
  <g
     id="g10"
     transform="matrix(1.3333333,0,0,1.3333333,-68.806568,-171.83041)">
    <path
       d="M 51.604927,128.87281 H 395.53762 V 468 H 51.604927 Z"
       style="fill:#ffffff;fill-opacity:1;fill-rule:nonzero;stroke:none;stroke-width:0.999997"
       id="path14" />
    <path
       d="m 94.164,377.801 c 0,0 -4.367,-0.637 -4.312,4.851 0.05,5.485 0.05,20.508 0.05,20.508 0,0 -2.238,47.309 18.008,57.641 20.242,10.336 36.652,0.426 41.871,-5.965 5.223,-6.395 6.606,-12.785 7.567,-19.074 0.957,-6.285 3.41,-3.942 3.515,5.863 0.106,9.801 0.321,18.965 0.321,18.965 0,0 -0.641,4.367 5.007,4.367 5.645,0 17.047,0 17.047,0 0,0 2.985,-0.531 2.664,-4.156 -0.32,-3.621 0.211,-11.613 0.211,-11.613 0,0 1.067,-2.665 2.664,0.535 1.598,3.195 5.434,12.465 8.633,11.824 3.195,-0.637 6.391,-25.891 8.84,-21.52 2.453,4.368 -1.277,24.719 3.52,25.356 4.792,0.64 10.121,0.746 12.996,0.535 2.879,-0.215 11.296,0.105 11.187,-3.625 -0.105,-3.727 -0.211,-30.793 -0.211,-33.137 0,-2.344 1.063,-4.898 2.555,-2.875 1.492,2.024 14.277,22.481 14.277,22.481 0,0 11.082,15.875 14.067,17.367 2.984,1.492 4.047,1.172 7.777,-1.598 3.73,-2.769 21.949,-20.457 21.949,-20.457 0,0 1.918,-0.957 2.77,0.321 0.851,1.277 -2.985,7.566 -3.625,16.621 0.004,0 -0.106,3.41 3.199,3.41 3.301,0 5.848,-0.094 12.879,0.226 7.031,0.317 7.562,-0.16 8.523,-4.582 0.961,-4.422 4.422,-23.332 4.793,-23.972 0.375,-0.641 1.067,-1.227 1.918,-1.227 0.852,0 1.703,0.481 2.93,6.18 1.226,5.699 4.742,23.387 4.742,23.387 0,0 0.641,2.503 3.465,2.503 2.82,0 7.031,-1.011 10.601,-1.011 3.567,0 8.895,1.386 10.333,0.32 1.441,-1.066 1.601,-2.344 -0.586,-6.605 -2.184,-4.262 -10.121,-30.633 -12.2,-38.731 -2.074,-8.098 -1.89,-8.445 -3.808,-13.664 -1.918,-5.223 -4.903,-15.078 -4.903,-19.18 0,-4.101 2.293,-7.031 1.493,-14.597 -0.797,-7.567 -5.938,-15.102 -14.356,-15.102 -8.418,0 -14.973,10.227 -15.183,21.309 -0.215,11.078 3.996,5.965 0.746,16.035 -3.25,10.07 -2.215,9.75 -4.532,20.109 -2.316,10.364 -3.437,6.77 -5.964,4.238 -2.532,-2.531 -4.422,-4.687 -7.219,-2.078 -2.797,2.61 -9.485,8.95 -9.485,8.95 l -11.148,10.16 c 0,0 -1.543,2.027 -3.461,0.054 -1.918,-1.972 -2.769,-4.742 -1.012,-6.71 1.758,-1.973 13.957,-13.055 13.957,-13.055 0,0 3.09,-2.078 1.387,-5.539 -1.707,-3.465 -4.105,-7.672 -9.273,-12.574 0,0 -1.703,-1.332 -3.887,0.425 -2.184,1.758 -14.918,11.457 -14.918,11.457 0,0 -3.25,3.036 -4.953,1.118 -1.703,-1.918 -4.742,-5.7 -2.824,-7.247 1.918,-1.543 16.433,-13.929 16.433,-13.929 0,0 4.156,-3.836 4.371,-6.715 l 0.051,-0.664 c 4.367,0.687 6.34,-0.699 8.293,-1.586 1.801,-0.817 -5.5,-3.113 -13.074,-5.723 -2.93,-2.851 -4.652,-4.871 -5.766,-6.73 -1.246,-2.074 -4.414,-3.391 -8.914,0.933 -6.691,-3.019 -13.098,-6.328 -17.398,-8.789 -5.832,-3.332 -5.485,-5.207 -1.598,-7.984 3.887,-2.777 78.848,-43.309 120.219,-83.012 41.367,-39.703 64.308,-105.539 36.82,-133.719 -27.484,-28.183 -68.09,24.641 -74.683,29.567 -6.594,4.93 -12.008,9.301 -32,0.14 -19.989,-9.164 -34.497,-31.234 -62.747,-27.488 -28.25,3.75 -34.324,18.848 -35.988,27.246 -1.664,8.399 2.844,23.391 15.688,31.86 12.839,8.468 23.804,7.91 34.632,7.98 10.829,0.07 25.684,-6.453 33.317,-11.105 7.637,-4.649 8.469,-14.09 4.859,-15.133 -3.609,-1.039 -4.926,1.25 -6.246,3.543 -1.32,2.289 -4.996,6.176 -12.492,10.34 -7.496,4.164 -18.813,5.621 -31.516,4.789 -12.699,-0.832 -33.246,-10.828 -33.316,-27.832 -0.066,-17.008 21.066,-25.996 35.504,-26.203 14.437,-0.207 29.707,16.382 47.687,27.211 17.977,10.824 24.364,8.05 24.43,10.687 0.07,2.637 -7.078,6.941 -27.625,30.262 -20.543,23.324 -23.945,31.652 -26.582,33.597 -2.641,1.942 -0.973,1.805 -17.492,-15.41 -16.52,-17.215 -20.961,-20.129 -61.219,-52.058 -40.258,-31.93 -68.578,-43.59 -82.32,-43.868 -13.746,-0.277 -19.992,10.411 -22.77,21.657 -2.773,11.246 -7.355,56.777 33.457,117.859 40.813,61.078 88.707,82.043 95.094,85.93 6.383,3.886 -0.695,6.246 -14.16,12.633 -7.301,3.461 -16.317,6.351 -23.039,8.273 -0.848,0.004 -3.606,0.125 -5.332,1.457 -2.711,0.711 -4.391,1.094 -4.391,1.094 0,0 1.223,-0.031 3.496,-0.125 -0.359,0.562 -0.57,1.254 -0.551,2.105 0.106,4.793 1.172,25.41 1.172,25.41 0,0 -0.265,29.993 -9.375,31.325 -9.109,1.332 -12.148,-1.278 -13.531,-12.039 -1.387,-10.762 -1.492,-39.211 -1.492,-39.211 0,0 0.027,-9.774 -1.891,-11.746 -1.918,-1.969 -3.785,-1.918 -18.617,-2.051 z m 141.203,3.051 c -1.597,1.429 -2.777,2.421 -3.094,2.57 -0.906,0.426 -1.918,0.426 -3.57,-0.961 -1.652,-1.383 -2.449,-1.332 -7.191,-1.223 -4.742,0.106 -17.715,-0.453 -17.715,-0.453 0,0 -2.289,-0.215 -3.25,2.715 -0.957,2.934 -3.141,12.629 -4.899,24.242 0,0 -0.746,2.129 -1.277,2.129 -0.535,0 -1.387,-0.32 -3.945,-7.086 -2.555,-6.765 -4.317,-15.394 -7.406,-19.336 -1.297,-1.66 -3.325,-2.316 -7.305,-2.496 14.742,-3.062 22.93,-9.976 24.828,-9.383 2.004,0.625 28.664,7.692 34.824,9.282 z m 24.906,0.843 c -0.578,-0.539 -1.125,-1.203 -1.644,-1.906 -1.094,-1.289 -2.434,-2.883 -4.16,-4.894 -0.602,-0.258 -1.219,-0.426 -1.836,-0.536 -2.449,1.266 -7.727,5.672 -14.93,11.883 -8.523,7.352 -12.574,8.473 -9.375,15.61 3.195,7.14 6.926,14.117 15.766,26.851 8.844,12.731 14.011,20.192 14.011,20.192 0,0 6.766,9.16 8.79,11.558 2.027,2.399 3.089,1.598 5.863,-0.637 2.769,-2.238 13.691,-14.226 20.137,-20.406 6.445,-6.18 9.589,-8.258 8.843,-9.801 -0.746,-1.547 -2.449,-4.101 -3.836,-5.754 -1.386,-1.652 -2.718,-2.398 -4.367,-1.171 -1.652,1.222 -10.601,8.574 -13,11.453 -2.398,2.875 -10.23,11.398 -11.453,11.082 -1.227,-0.321 -3.039,-2.344 -4.211,-4.422 -1.172,-2.078 -4.207,-5.863 -4.207,-6.129 0,-0.266 -1.758,-2.395 0.051,-4.207 1.812,-1.813 13.215,-13.426 14.066,-14.277 0.852,-0.852 2.399,-2.559 0.957,-4.954 -1.437,-2.398 -4.207,-6.714 -5.75,-5.062 -1.547,1.652 -9.75,9.43 -12.789,11.453 -3.035,2.024 -5.219,4.953 -7.937,2.024 -2.715,-2.93 -7.938,-12.04 -7.989,-12.52 -0.054,-0.477 -1.066,-2.129 0.586,-3.566 1.653,-1.442 12.891,-11.082 12.891,-11.082 0,0 6.871,-5.754 7.191,-6.235 0.321,-0.48 1.227,-1.492 -0.425,-3.195 -0.383,-0.395 -0.789,-0.84 -1.243,-1.352 z M 119.613,197.699 c 0,0 7.219,-4.441 25.821,4.996 18.601,9.442 41.921,22.211 38.312,38.317 -3.609,16.101 -8.051,27.484 -26.652,28.875 0,-0.004 -6.387,-0.282 1.664,-4.723 8.054,-4.441 17.492,-14.992 13.605,-29.152 -3.886,-14.16 -38.867,-29.43 -45.808,-33.871 -6.942,-4.442 -5.278,-0.555 -6.942,-4.442 z m 85.371,147.496 c 0,0 -9.714,-27.207 22.215,-83.015 0,0 3.746,-5.137 1.594,-7.844 -2.152,-2.707 -17.004,-18.324 -28.109,-29.984 -11.106,-11.661 -40.258,-35.258 -88.289,-58.305 -48.036,-23.043 -43.59,21.379 -33.594,58.859 9.992,37.481 32.761,67.746 56.914,90.789 24.156,23.047 54.418,35.539 58.027,37.203 3.61,1.668 13.328,0.559 11.242,-7.703 z m 42.067,-92.523 c 0,0 37.203,-50.531 70.242,-76.352 33.039,-25.82 43.59,-26.652 54.973,-17.769 11.382,8.887 4.164,60.25 -49.422,113 -53.582,52.75 -103.282,72.465 -105.782,70.242 -2.496,-2.219 -5.828,-24.152 21.102,-75.238 0,0 2.5,0 6.664,6.105 4.164,6.11 14.992,23.047 17.77,20.824 2.777,-2.222 -0.832,-7.218 -11.66,-21.933 -10.829,-14.715 -5.067,-16.727 -3.887,-18.879 z m -74.024,136.422 c 0,0 -1.277,-0.586 -1.011,0.426 0.265,1.011 1.863,5.753 3.886,9.269 2.028,3.516 2.133,8.578 5.118,7.191 2.98,-1.386 -0.801,-4.21 -2.454,-7.671 -1.648,-3.465 -3.195,-5.274 -3.726,-6.606 -0.535,-1.332 -0.801,-2.078 -1.813,-2.609 z M 95.73,386.832 c 0,0 0.215,18.43 0.641,27.914 0.426,9.484 2.902,25.758 8.762,34.816 5.863,9.055 13.851,12.411 24.453,11.239 10.602,-1.172 23.07,-6.391 24.934,-22.641 1.863,-16.25 1.41,-48.32 1.41,-48.32 0,0 0.242,-3.621 -3.246,-3.649 -3.493,-0.027 -7.778,-0.054 -7.778,-0.054 0,0 -3.41,-0.211 -3.226,3.359 0.187,3.566 1.601,21.602 1.601,21.602 0,0 1.25,22.136 -1.629,30.019 -2.875,7.883 -10.336,10.016 -18.539,6.606 -8.203,-3.411 -10.015,-14.278 -10.547,-25.68 -0.535,-11.398 -0.691,-32.973 -0.691,-32.973 0,0 -0.215,-4.371 -3.836,-4.691 -3.625,-0.32 -9.269,-0.32 -9.269,-0.32 0,0 -2.668,-0.211 -3.04,2.773 z m 69.629,-2.773 2.344,69.683 c 0,0 -0.851,7.672 3.305,7.672 4.156,0 10.441,-0.105 10.441,-0.105 0,0 2.239,-0.747 2.344,-3.942 0.105,-3.199 -0.746,-26.426 -1.707,-34.629 0,0 -0.852,-4.183 -0.902,-4.847 -0.055,-0.668 -0.11,-2.266 1.355,-2.371 1.465,-0.106 3.492,2.476 5.035,9.933 1.547,7.461 7.699,25.52 9.723,25.68 2.027,0.16 2.879,-8.949 5.594,-17.153 2.718,-8.207 4.316,-14.918 4.421,-16.996 0.11,-2.078 0.641,-4.902 3.09,-4.902 2.45,0 3.305,1.973 3.196,11.934 -0.106,9.964 0.746,26.691 0.746,26.691 l 0.347,7.539 c 0,0 0.211,2.449 4.317,2.449 4.101,0 9.054,0 9.054,0 0,0 1.864,-0.105 2.079,-3.09 0.211,-2.984 0.16,-29.621 0.16,-29.621 0,0 0.508,-8.55 -2.051,-11.957 -2.559,-3.41 -9.031,-15 -10.148,-16.703 -1.118,-1.703 -1.387,-2.984 1.226,-5.219 2.61,-2.238 6.926,-4.531 6.07,-6.66 -0.851,-2.133 -8.464,-1.543 -16.941,-1.757 0,0 -2.078,-0.376 -3.25,4.632 -1.172,5.008 -6.496,29.246 -6.496,29.246 0,0 -0.375,2.614 -2.344,2.614 -1.972,0 -5.543,-8.739 -8.738,-18.539 -3.195,-9.805 -5.699,-16.145 -5.969,-16.676 -0.265,-0.531 -0.957,-2.453 -5.058,-2.664 -4.102,-0.215 -11.243,-0.242 -11.243,-0.242 z m 146.075,19.949 c 0,0 -2.774,11.508 -3.942,18.543 -1.176,7.031 -5.437,24.929 -5.437,24.929 l -2.664,11.082 c 0,0 -0.743,2.344 0.64,2.665 1.387,0.32 10.762,0.105 10.762,0.105 0,0 2.769,0.215 3.621,-3.516 0.856,-3.73 5.648,-24.082 5.648,-24.082 0,0 0.321,-3.406 3.836,-3.406 3.516,0 5.54,-0.215 5.54,-0.215 0,0 2.382,0.289 3.304,3.731 0.922,3.441 5.86,25.57 5.86,25.57 0,0 0.746,4.477 5.007,4.477 4.262,0 8.95,0 8.95,0 0,0 1.492,0.105 0.535,-3.516 -0.961,-3.625 -8.207,-25.785 -10.231,-32.391 -2.023,-6.605 -5.859,-16.41 -6.711,-22.375 -0.851,-5.968 -2.769,-12.894 -5.543,-11.933 -2.769,0.957 -4.898,3.09 -3.621,5.965 1.278,2.879 6.395,16.195 6.715,18.328 0.317,2.129 -0.641,3.195 -3.73,3.195 -3.09,0 -12.469,-0.105 -12.469,-0.105 0,0 -3.516,0.105 -2.234,-5.118 1.277,-5.218 4.152,-12.675 4.367,-16.511 0.215,-3.836 0.851,-3.41 -1.813,-4.688 -2.664,-1.281 -3.41,-0.43 -4.367,3.516 -0.957,3.941 -2.023,5.75 -2.023,5.75 z m 10.972,2.344 c 0,0 -2.875,2.558 -3.195,7.035 -0.32,4.472 0.641,4.582 3.195,5.008 2.559,0.425 3.836,-0.426 3.516,-4.262 -0.32,-3.836 -0.211,-7.035 -3.516,-7.781 z m 3.942,-42.723 c 0,0 -11.078,0.32 -11.399,13 -0.32,12.676 4.473,16.512 8.524,16.832 4.047,0.32 10.761,-5.434 10.761,-15.66 0,-10.231 -4.05,-13.746 -7.886,-14.172"
       style="fill:#000000;fill-opacity:1;fill-rule:evenodd;stroke:none"
       id="path16" />
  </g>
</svg>
